<?xml version="1.0" encoding="UTF-8" standalone="no"?>
<svg xmlns="http://www.w3.org/2000/svg" width="56.699733" height="58.215644" viewBox="0 0 56.699733 58.215644">
  <g transform="translate(-0.08716101,-994.25595)">
    <path style="fill:none;stroke:currentColor;stroke-width:3;stroke-linecap:round;stroke-linejoin:round;stroke-miterlimit:10;stroke-opacity:1"
       d="m 4.8921767,996.23609 c 2.8587923,-0.53457 5.4553533,0.0757 8.1895023,0.10254 2.952719,0.006 5.911666,0.0273 8.87239,-0.0776 6.08413,0.36714 12.662586,0.92452 18.775736,0.35551 4.073296,-0.26987 10.471762,-1.58485 13.613273,1.60635 1.38334,2.78361 -0.940924,7.30581 0.01133,10.38481 1.139959,6.5886 0.245136,13.2902 0.92504,19.9162 0.108757,4.1109 -1.14846,8.1443 -0.67088,12.2709 -0.03488,2.5211 1.323795,8.1994 -1.686113,9.2956 -5.378662,1.1302 -11.598507,1.166 -17.089398,0.126 -7.589552,-0.6155 -15.045911,-0.2528 -22.587396,0.4665 -2.893353,-0.1906 -7.3837217,0.6299 -9.753457,-1.1587 -1.715398,-3.5131 -2.1279169,-7.6992 -1.8001573,-11.6642 0.2346695,-7.9912 0.1391634,-16.0407 0.2791106,-24.0373 0.437719,-5.5445 0.2392765,-5.9523 -0.054501,-11.4737 -0.2651019,-3.966 1.9404939,-6.28815 2.9305636,-6.02251" />
  </g>
</svg>